<svg width="53" height="53" viewBox="0 0 53 53" fill="none" xmlns="http://www.w3.org/2000/svg">
<path d="M53 26.5C53 41.1355 41.1355 53 26.5 53C11.8645 53 0 41.1355 0 26.5C0 11.8645 11.8645 0 26.5 0C41.1355 0 53 11.8645 53 26.5Z" fill="#F8A00C"/>
<path d="M28.9999 8.98014C28.989 7.32333 27.637 5.9891 25.9801 6.00007C24.3233 6.01103 22.9891 7.36304 23.0001 9.01986L23.0926 23H9C7.34315 23 6 24.3431 6 26C6 27.6569 7.34315 29 9 29H23.1323L23.2317 44.0191C23.2427 45.6759 24.5947 47.0101 26.2515 46.9992C27.9083 46.9882 29.2426 45.6362 29.2316 43.9794L29.1324 29H44C45.6569 29 47 27.6569 47 26C47 24.3431 45.6569 23 44 23H29.0927L28.9999 8.98014Z" fill="white"/>
<path d="M48.5 32C47.3333 36.3333 41.9 45.1 33.5 47.5" stroke="#FFB73F" stroke-width="5" stroke-linecap="round"/>
<path d="M7 19C7.66667 15.6667 11.2 8.3 20 5.5" stroke="#FFDFB9" stroke-width="5" stroke-linecap="round"/>
<path d="M7 26.5H47M26.5122 46L26.5659 7" stroke="#C86D01" stroke-width="7" stroke-linecap="round"/>
</svg>
