<svg width="65" height="65" viewBox="0 0 65 65" fill="none" xmlns="http://www.w3.org/2000/svg">
<path d="M31.5 11C33 10 35 12.3342 45 7C55 1.66576 58 2.5 58 2C58 1.5 54 1.5 59.5 2C63.9 2.4 63 9.16667 62 12.5C59.5 25.5 54.6 51.6 55 52C55.5 52.5 57 52 56 58C55 64 46 63.5 41 62C36 60.5 19.5012 52.5 8.00117 40C-1.19883 30 3.16783 23.8333 6.50117 22C10.5021 19.6 12.8341 21.3333 13.5 22.5C13.5 17 17.5 17.5 24 17.5" stroke="#C86D01" stroke-width="2"/>
<path d="M23.5 17.5C24 17.6667 25.8 16.9 29 12.5C29.3333 11.8333 30.9 10.5 34.5 10.5" stroke="#C86D01" stroke-width="2"/>
</svg>
