<svg width="60" height="37" viewBox="0 0 60 37" fill="none" xmlns="http://www.w3.org/2000/svg">
<circle cx="11.5" cy="30.5" r="6.5" fill="#B95906"/>
<circle cx="31.5" cy="30.5" r="6.5" fill="#B95906"/>
<circle cx="51.5" cy="30.5" r="6.5" fill="#B95906"/>
<path d="M4 9C4.16667 7.5 4.52949 6.19032 7.5 5.00214C10 4.00216 12.5 4.99904 13.5 7.00332C15 9.00315 17.9 16.7 13.5 29.5" stroke="#FFF2E7" stroke-width="8" stroke-linecap="round"/>
<path d="M24 8.39062C24.1667 6.89062 24.5295 5.58094 27.5 4.39276C30 3.39278 32.5 4.38966 33.5 6.39394C35 8.39378 37.9 16.0906 33.5 28.8906" stroke="#FFF2E7" stroke-width="8" stroke-linecap="round"/>
<path d="M44 8.39062C44.1667 6.89062 44.5295 5.58094 47.5 4.39276C50 3.39278 52.5 4.38966 53.5 6.39394C55 8.39378 57.9 16.0906 53.5 28.8906" stroke="#FFF2E7" stroke-width="8" stroke-linecap="round"/>
</svg>
