<svg width="120" height="113" viewBox="0 0 120 113" fill="none" xmlns="http://www.w3.org/2000/svg">
<g filter="url(#filter0_d_292_5124)">
<path d="M5 51.58C5 37.9088 5 31.0732 8.52124 26.3058C9.58711 24.8627 10.8627 23.5871 12.3058 22.5212C17.0732 19 23.9088 19 37.58 19H82.42C96.0912 19 102.927 19 107.694 22.5212C109.137 23.5871 110.413 24.8627 111.479 26.3058C115 31.0732 115 37.9088 115 51.58V75.42C115 89.0912 115 95.9268 111.479 100.694C110.413 102.137 109.137 103.413 107.694 104.479C102.927 108 96.0912 108 82.42 108H37.58C23.9088 108 17.0732 108 12.3058 104.479C10.8627 103.413 9.58711 102.137 8.52124 100.694C5 95.9268 5 89.0912 5 75.42V51.58Z" fill="#FFF0CE"/>
<path d="M101 5L113.124 30.5H88.8756L101 5Z" fill="#FFF0CE"/>
</g>
<defs>
<filter id="filter0_d_292_5124" x="0" y="0" width="120" height="113" filterUnits="userSpaceOnUse" color-interpolation-filters="sRGB">
<feFlood flood-opacity="0" result="BackgroundImageFix"/>
<feColorMatrix in="SourceAlpha" type="matrix" values="0 0 0 0 0 0 0 0 0 0 0 0 0 0 0 0 0 0 127 0" result="hardAlpha"/>
<feOffset/>
<feGaussianBlur stdDeviation="2.5"/>
<feComposite in2="hardAlpha" operator="out"/>
<feColorMatrix type="matrix" values="0 0 0 0 0 0 0 0 0 0 0 0 0 0 0 0 0 0 0.15 0"/>
<feBlend mode="normal" in2="BackgroundImageFix" result="effect1_dropShadow_292_5124"/>
<feBlend mode="normal" in="SourceGraphic" in2="effect1_dropShadow_292_5124" result="shape"/>
</filter>
</defs>
</svg>
