<svg width="318" height="124" viewBox="0 0 318 124" fill="none" xmlns="http://www.w3.org/2000/svg">
<ellipse cx="34.2261" cy="22.3946" rx="5.65974" ry="4.51176" fill="#B95906"/>
<ellipse cx="51.6402" cy="22.3946" rx="5.65974" ry="4.51176" fill="#B95906"/>
<ellipse cx="69.0582" cy="22.3946" rx="5.65974" ry="4.51176" fill="#B95906"/>
<path d="M315.469 59.5326L315.827 102.22C316.17 108.465 311.196 121.056 288.56 121.454C265.924 121.852 229.789 121.883 214.551 121.848" stroke="#B95600" stroke-width="3" stroke-linecap="round"/>
<path d="M2.01154 71.6798V28.9915C1.72129 22.7445 6.80055 10.181 29.4395 9.9033C52.0785 9.62566 88.2129 9.78762 103.45 9.9033" stroke="#B95600" stroke-width="3" stroke-linecap="round"/>
<path d="M27.6953 7.46949C27.8404 6.42831 28.1564 5.51924 30.7429 4.6945C32.9197 4.0004 35.0965 4.69234 35.9672 6.08355C37.2733 7.47167 39.7985 12.8142 35.9672 21.6989" stroke="#FFF2E7" stroke-width="8" stroke-linecap="round"/>
<path d="M45.1094 7.04761C45.2545 6.00643 45.5704 5.09736 48.1569 4.27262C50.3338 3.57852 52.5106 4.27047 53.3813 5.66168C54.6874 7.0498 57.2125 12.3923 53.3813 21.277" stroke="#FFF2E7" stroke-width="8" stroke-linecap="round"/>
<path d="M62.5273 7.04761C62.6725 6.00643 62.9884 5.09736 65.5749 4.27262C67.7517 3.57852 69.9285 4.27047 70.7993 5.66168C72.1054 7.0498 74.6305 12.3923 70.7993 21.277" stroke="#FFF2E7" stroke-width="8" stroke-linecap="round"/>
</svg>
