<svg width="338" height="148" viewBox="0 0 338 148" fill="none" xmlns="http://www.w3.org/2000/svg">
<g filter="url(#filter0_d_280_3123)">
<rect x="12.0039" y="12.1094" width="313.581" height="123.731" rx="31" fill="#FFF0CE"/>
<rect x="10.0039" y="10.1094" width="317.581" height="127.731" rx="33" stroke="white" stroke-width="4"/>
</g>
<path d="M312.48 26.215C311.607 24.6875 308.026 21.4796 300.688 20.8686C293.351 20.2576 284.238 20.614 280.598 20.8686" stroke="white" stroke-width="5" stroke-linecap="round"/>
<ellipse cx="2.18371" cy="1.90943" rx="2.18371" ry="1.90943" transform="matrix(-1 0 0 1 275.793 19)" fill="white"/>
<ellipse cx="43.8847" cy="26.238" rx="5.67765" ry="4.96451" fill="#B95906"/>
<ellipse cx="61.3534" cy="26.238" rx="5.67765" ry="4.96451" fill="#B95906"/>
<ellipse cx="78.8261" cy="26.238" rx="5.67765" ry="4.96451" fill="#B95906"/>
<path d="M37.332 9.82218C37.4776 8.67653 37.7945 7.67623 40.3892 6.76873C42.5729 6.00498 44.7566 6.76636 45.6301 8.29717C46.9404 9.82459 49.4735 15.7032 45.6301 25.4795" stroke="#FFF2E7" stroke-width="8" stroke-linecap="round"/>
<path d="M54.8008 9.35343C54.9464 8.20778 55.2633 7.20748 57.858 6.29998C60.0417 5.53623 62.2254 6.29761 63.0989 7.82842C64.4091 9.35584 66.9422 15.2345 63.0989 25.0107" stroke="#FFF2E7" stroke-width="8" stroke-linecap="round"/>
<path d="M72.2734 9.35343C72.419 8.20778 72.7359 7.20748 75.3306 6.29998C77.5143 5.53623 79.6981 6.29761 80.5715 7.82842C81.8818 9.35584 84.4149 15.2345 80.5715 25.0107" stroke="#FFF2E7" stroke-width="8" stroke-linecap="round"/>
<defs>
<filter id="filter0_d_280_3123" x="0.203906" y="0.309375" width="337.182" height="147.334" filterUnits="userSpaceOnUse" color-interpolation-filters="sRGB">
<feFlood flood-opacity="0" result="BackgroundImageFix"/>
<feColorMatrix in="SourceAlpha" type="matrix" values="0 0 0 0 0 0 0 0 0 0 0 0 0 0 0 0 0 0 127 0" result="hardAlpha"/>
<feOffset/>
<feGaussianBlur stdDeviation="3.9"/>
<feComposite in2="hardAlpha" operator="out"/>
<feColorMatrix type="matrix" values="0 0 0 0 0.701346 0 0 0 0 0.280538 0 0 0 0 0 0 0 0 0.21 0"/>
<feBlend mode="normal" in2="BackgroundImageFix" result="effect1_dropShadow_280_3123"/>
<feBlend mode="normal" in="SourceGraphic" in2="effect1_dropShadow_280_3123" result="shape"/>
</filter>
</defs>
</svg>
