<svg width="339" height="462" viewBox="0 0 339 462" fill="none" xmlns="http://www.w3.org/2000/svg">
<g filter="url(#filter0_d_280_1505)">
<rect x="13" y="18" width="312.592" height="431" rx="31" fill="#FFF0CE"/>
<rect x="10.5" y="15.5" width="317.592" height="436" rx="33.5" stroke="white" stroke-width="5"/>
</g>
<ellipse cx="47.5301" cy="42.5408" rx="9.99108" ry="9.45486" fill="#B95906"/>
<ellipse cx="78.2684" cy="42.5408" rx="9.99108" ry="9.45486" fill="#B95906"/>
<ellipse cx="109.011" cy="42.5408" rx="9.99108" ry="9.45486" fill="#B95906"/>
<path d="M36 11.2616C36.2562 9.07969 36.8139 7.17463 41.3798 5.44631C45.2225 3.99175 49.0653 5.4418 50.6024 8.35721C52.908 11.2662 57.3656 22.462 50.6024 41.0808" stroke="#FFF2E7" stroke-width="8" stroke-linecap="round"/>
<path d="M66.7383 10.3866C66.9945 8.20469 67.5522 6.29963 72.1181 4.57131C75.9608 3.11675 79.8035 4.5668 81.3406 7.48221C83.6463 10.3912 88.1038 21.587 81.3406 40.2058" stroke="#FFF2E7" stroke-width="8" stroke-linecap="round"/>
<path d="M97.4805 10.3866C97.7367 8.20469 98.2943 6.29963 102.86 4.57131C106.703 3.11675 110.546 4.5668 112.083 7.48221C114.388 10.3912 118.846 21.587 112.083 40.2058" stroke="#FFF2E7" stroke-width="8" stroke-linecap="round"/>
<path d="M312 43.0074C310.468 39.1946 304.187 31.1876 291.319 29.6624C278.451 28.1373 262.468 29.0269 256.085 29.6624" stroke="white" stroke-width="5" stroke-linecap="round"/>
<ellipse cx="3.82982" cy="4.76608" rx="3.82982" ry="4.76608" transform="matrix(-1 0 0 1 247.66 25)" fill="white"/>
<defs>
<filter id="filter0_d_280_1505" x="0.2" y="5.2" width="338.194" height="456.6" filterUnits="userSpaceOnUse" color-interpolation-filters="sRGB">
<feFlood flood-opacity="0" result="BackgroundImageFix"/>
<feColorMatrix in="SourceAlpha" type="matrix" values="0 0 0 0 0 0 0 0 0 0 0 0 0 0 0 0 0 0 127 0" result="hardAlpha"/>
<feOffset/>
<feGaussianBlur stdDeviation="3.9"/>
<feComposite in2="hardAlpha" operator="out"/>
<feColorMatrix type="matrix" values="0 0 0 0 0.701346 0 0 0 0 0.280538 0 0 0 0 0 0 0 0 0.21 0"/>
<feBlend mode="normal" in2="BackgroundImageFix" result="effect1_dropShadow_280_1505"/>
<feBlend mode="normal" in="SourceGraphic" in2="effect1_dropShadow_280_1505" result="shape"/>
</filter>
</defs>
</svg>
