<svg width="184" height="37" viewBox="0 0 184 37" fill="none" xmlns="http://www.w3.org/2000/svg">
<circle cx="11" cy="11" r="11" fill="white" fill-opacity="0.2"/>
<circle cx="11" cy="11" r="10" stroke="#C86D01" stroke-opacity="0.76" stroke-width="2"/>
<path d="M33.2 4.472H42.928V10.024H33.2V4.472ZM41.792 9.048V7.736H34.336V9.048H41.792ZM34.336 6.792H41.792V5.464H34.336V6.792ZM37.6 12.264H30.928V11.208H45.088V12.264H38.768V14.072H43.376V15.096H38.768V17.224C39.536 17.288 40.464 17.336 41.52 17.336C42.896 17.336 44.064 17.32 45.008 17.288L44.688 18.376C43.536 18.376 42.512 18.36 41.6 18.344C38.96 18.344 37.168 18.136 36.224 17.736C35.408 17.368 34.672 16.664 34.032 15.608C33.408 16.792 32.608 17.768 31.648 18.552L30.896 17.608C32.368 16.424 33.376 14.824 33.904 12.824L34.992 13.016C34.832 13.608 34.656 14.168 34.448 14.696C35.12 15.816 35.888 16.52 36.72 16.824C36.976 16.904 37.264 16.984 37.6 17.048V12.264ZM47.552 4.68H60.512V5.8H55.408C55.152 6.152 54.864 6.504 54.576 6.824V12.12H53.424V7.928C51.92 9.176 49.952 10.28 47.52 11.256L46.8 10.312C50.224 9.048 52.656 7.544 54.096 5.8H47.552V4.68ZM59.312 12.68V18.536H58.144V17.784H49.888V18.536H48.72V12.68H59.312ZM49.888 16.664H58.144V13.8H49.888V16.664ZM56.256 7.224C58.176 8.312 59.776 9.416 61.072 10.52L60.24 11.368C59.088 10.312 57.504 9.176 55.488 7.96L56.256 7.224ZM76.144 4.072L76.688 5.048C74.384 5.56 71.824 5.848 68.992 5.912V7.256H72.752L72.816 5.944L73.952 6.104L73.888 7.256H77.088V8.28H73.808C73.744 8.792 73.696 9.272 73.632 9.752H76.416V18.616H75.344V17.592H71.056V18.584H69.984V9.752H72.528L72.672 8.28H68.992V11.176C68.928 14.264 68.352 16.728 67.28 18.584L66.464 17.736C67.36 16.152 67.84 13.96 67.904 11.176V4.984C70.944 4.936 73.696 4.632 76.144 4.072ZM71.056 16.6H75.344V15.192H71.056V16.6ZM71.056 14.296H75.344V12.952H71.056V14.296ZM71.056 12.056H75.344V10.728H71.056V12.056ZM65.968 4.136L66.976 4.6C66.208 6.328 64.944 7.864 63.184 9.192L62.848 8.056C64.288 6.92 65.328 5.608 65.968 4.136ZM66.272 8.168L67.28 8.632C66.864 9.496 66.336 10.296 65.696 11.048V18.52H64.592V12.184C64.096 12.632 63.568 13.048 63.008 13.464L62.672 12.36C64.336 11.144 65.536 9.736 66.272 8.168ZM90.304 9.064C91.68 10.712 92.752 12.152 93.488 13.384L92.528 14.056C91.76 12.712 90.736 11.24 89.424 9.624L90.304 9.064ZM79.104 9.752H80.88V6.296H78.864V5.176H84.048V6.296H82V9.752H83.824V10.856H82V14.648C82.736 14.424 83.44 14.168 84.144 13.896V15C82.528 15.624 80.8 16.136 78.944 16.552L78.656 15.448C79.408 15.32 80.144 15.16 80.88 14.968V10.856H79.104V9.752ZM84.688 4.712H92.816V5.832H89.936C89.728 6.536 89.488 7.208 89.216 7.848V18.584H88.096V10.056C87.168 11.608 86.016 13 84.64 14.232L83.936 13.32C86.272 11.256 87.888 8.76 88.816 5.832H84.688V4.712Z" fill="#C86D01"/>
</svg>
