<svg width="229" height="21" viewBox="0 0 229 21" fill="none" xmlns="http://www.w3.org/2000/svg">
<circle cx="10.5" cy="10.5" r="10.5" fill="white"/>
<path d="M36.04 5.4L36.94 4.78C37.49 5.25 38.14 5.92 38.44 6.39L37.47 7.07C37.21 6.59 36.58 5.89 36.04 5.4ZM29.49 7.35H38.52V8.49H29.49V7.35ZM29.3 10.18C30.51 10 32.41 9.67 34.16 9.35L34.25 10.44C32.63 10.78 30.89 11.13 29.6 11.39L29.3 10.18ZM31.39 5.74H32.6V12.5C32.6 13.15 32.47 13.48 32.06 13.67C31.66 13.86 31.07 13.9 30.25 13.9C30.2 13.56 30 13.02 29.82 12.68C30.39 12.71 30.97 12.71 31.15 12.7C31.33 12.7 31.39 12.65 31.39 12.48V5.74ZM33.44 4.57L34.25 5.59C32.95 5.99 31.24 6.26 29.79 6.42C29.73 6.14 29.58 5.69 29.44 5.42C30.85 5.23 32.41 4.92 33.44 4.57ZM34.42 4.59H35.68C35.61 8.62 36.51 12.72 37.42 12.72C37.63 12.72 37.74 12.23 37.8 11.04C38.05 11.32 38.46 11.6 38.78 11.73C38.59 13.5 38.21 13.94 37.3 13.94C35.23 13.94 34.45 9.08 34.42 4.59ZM37.14 8.82L38.2 9.27C37.16 11.13 35.53 12.62 33.72 13.58C33.54 13.28 33.21 12.88 32.91 12.61C34.62 11.83 36.25 10.47 37.14 8.82ZM40.3 7.03H41.54V11.71C41.54 12.33 41.71 12.43 42.82 12.43C43.34 12.43 45.53 12.43 46.12 12.43C47.15 12.43 47.31 12.17 47.45 10.7C47.76 10.9 48.32 11.11 48.67 11.17C48.44 13.07 48 13.62 46.17 13.62C45.68 13.62 43.28 13.62 42.83 13.62C40.89 13.62 40.3 13.24 40.3 11.71V7.03ZM41.02 8.39H46.55V9.58H41.02V8.39ZM39.9 5.07H47.35V10.04H46.1V6.26H39.9V5.07ZM52.74 8.79V9.65H55.14V8.79H52.74ZM51.69 7.85H56.25V10.59H51.69V7.85ZM52.69 10.31H53.74C53.59 11.6 53.2 12.64 51.72 13.29C51.61 13.03 51.31 12.6 51.07 12.41C52.3 11.96 52.57 11.22 52.69 10.31ZM54.96 6.33L56.12 6.6C55.75 7.23 55.35 7.86 55.02 8.28L54.03 8.01C54.36 7.56 54.75 6.84 54.96 6.33ZM51.95 6.76L52.87 6.34C53.18 6.73 53.52 7.24 53.65 7.61L52.68 8.07C52.57 7.71 52.26 7.16 51.95 6.76ZM57.15 5.01H58.3V12.65C58.3 13.2 58.21 13.48 57.88 13.67C57.55 13.85 57.07 13.87 56.41 13.87C56.37 13.57 56.23 13.09 56.08 12.81C56.44 12.83 56.84 12.83 56.97 12.82C57.11 12.82 57.15 12.78 57.15 12.64V5.01ZM49.71 6.92H50.88V13.89H49.71V6.92ZM49.85 5.15L50.76 4.57C51.21 5 51.76 5.61 52 6.04L51.03 6.69C50.81 6.26 50.3 5.62 49.85 5.15ZM52.4 5.01H57.82V6.05H52.4V5.01ZM54.12 10.3H55.16V11.89C55.16 12.12 55.18 12.15 55.33 12.15C55.39 12.15 55.64 12.15 55.72 12.15C55.87 12.15 55.9 12.05 55.93 11.38C56.12 11.54 56.55 11.69 56.82 11.76C56.72 12.8 56.46 13.07 55.84 13.07C55.68 13.07 55.31 13.07 55.15 13.07C54.3 13.07 54.12 12.78 54.12 11.9V10.3ZM62.93 5.29H68.04V6.28H62.93V5.29ZM64.89 4.51H66.07V7.35H64.89V4.51ZM63.27 8.61L63.76 8.05C64.25 8.29 64.91 8.67 65.24 8.95L64.73 9.58C64.42 9.29 63.79 8.88 63.27 8.61ZM62.52 9.48L63.05 8.9C63.57 9.16 64.24 9.59 64.56 9.9L64.02 10.55C63.71 10.23 63.06 9.77 62.52 9.48ZM62.58 6.91H67.84V7.92H62.58V6.91ZM67.44 6.91H67.59L67.77 6.87L68.53 7.03C68.35 7.79 68.1 8.63 67.88 9.17L66.95 8.97C67.12 8.48 67.33 7.69 67.44 7.06V6.91ZM62.37 10.29H68.5V11.32H62.37V10.29ZM65.14 8.18H66.29V9.26C66.29 10.73 65.9 12.78 62.89 13.97C62.76 13.69 62.41 13.26 62.17 13.04C64.84 12.05 65.14 10.39 65.14 9.23V8.18ZM65.77 12.1L66.48 11.43C67.25 11.91 68.27 12.64 68.75 13.17L68 13.93C67.54 13.41 66.57 12.62 65.77 12.1ZM59.79 5.41L60.55 4.63C61.1 5.06 61.87 5.68 62.23 6.1L61.42 6.97C61.08 6.54 60.35 5.87 59.79 5.41ZM60.64 13.83L60.35 12.71L60.55 12.32L62.25 10.89C62.36 11.21 62.56 11.68 62.7 11.91C61.1 13.3 60.8 13.59 60.64 13.83ZM60.64 13.84C60.53 13.6 60.23 13.2 60.05 13.03C60.26 12.85 60.53 12.48 60.53 11.95V7.58H61.63V12.58C61.63 12.58 60.64 13.43 60.64 13.84ZM59.31 7.58H61.35V8.73H59.31V7.58ZM69.78 6.51H78.27V7.65H69.78V6.51ZM69.45 9.41H78.56V10.56H69.45V9.41ZM75.11 7.17H76.35V13.9H75.11V7.17ZM71.65 7.18H72.85V9.34C72.85 10.99 72.55 12.84 70.28 14C70.12 13.72 69.72 13.28 69.46 13.06C71.41 12.1 71.65 10.62 71.65 9.31V7.18ZM71.04 4.9L72.11 4.48C72.5 5 72.92 5.71 73.1 6.18L71.95 6.66C71.81 6.19 71.41 5.44 71.04 4.9ZM75.85 4.45L77.22 4.84C76.8 5.49 76.34 6.16 75.98 6.59L74.92 6.22C75.26 5.73 75.65 5 75.85 4.45ZM81.49 6.83H86.49V7.84H81.49V6.83ZM81.96 8.6H83.06V12.63H81.96V8.6ZM82.56 8.6H86.05V11.97H82.56V10.97H84.94V9.58H82.56V8.6ZM79.75 4.98H87.75V6.12H80.91V13.91H79.75V4.98ZM87.08 4.98H88.26V12.53C88.26 13.15 88.14 13.49 87.75 13.68C87.37 13.88 86.82 13.91 85.97 13.91C85.93 13.58 85.75 13.03 85.57 12.73C86.1 12.75 86.68 12.75 86.85 12.75C87.02 12.74 87.08 12.68 87.08 12.51V4.98ZM91.85 10.29H96.19V9.86H91.85V10.29ZM91.85 9.16H96.19V8.73H91.85V9.16ZM97.38 7.99V11.03H90.72V7.99H97.38ZM96.57 5.99C96.35 6.37 96.16 6.68 96.01 6.92L94.95 6.69C95.08 6.41 95.24 6.03 95.32 5.76L96.57 5.99ZM92.66 5.76C92.81 6.05 92.95 6.43 93.01 6.68L91.87 6.94C91.83 6.67 91.7 6.28 91.56 5.98L92.66 5.76ZM94.59 4.51V5.71H93.38V4.51H94.59ZM98.36 6.69V7.62H89.67V6.69H98.36ZM97.82 5.04V5.97H90.15V5.04H97.82ZM91.59 11.73C91.32 12.49 90.91 13.23 90.2 13.7L89.27 13.07C89.9 12.68 90.35 12.03 90.59 11.36L91.59 11.73ZM97.08 11.24C97.69 11.76 98.4 12.5 98.72 13.06L97.72 13.64C97.44 13.1 96.76 12.31 96.15 11.76L97.08 11.24ZM93.6 10.81C94.16 11.04 94.89 11.43 95.27 11.73L94.58 12.43C94.23 12.13 93.52 11.71 92.96 11.44L93.6 10.81ZM93.02 12.54C93.02 12.8 93.1 12.83 93.56 12.83C93.77 12.83 94.66 12.83 94.94 12.83C95.3 12.83 95.37 12.72 95.42 12.01C95.66 12.17 96.13 12.33 96.43 12.39C96.31 13.52 95.99 13.8 95.05 13.8C94.78 13.8 93.68 13.8 93.43 13.8C92.16 13.8 91.85 13.5 91.85 12.55V11.5H93.02V12.54ZM164.59 11.47H167.58V12.62H164.59V11.47ZM164.16 5.45H168.17V13.34H166.94V6.59H165.33V13.41H164.16V5.45ZM161.23 5.5H162.43V13.89H161.23V5.5ZM159.43 7.49H163.89V8.6H159.43V7.49ZM161.15 7.91L161.95 8.18C161.52 9.8 160.74 11.69 159.82 12.71C159.7 12.36 159.42 11.89 159.22 11.58C160.05 10.7 160.81 9.19 161.15 7.91ZM163.15 4.59L163.93 5.53C162.75 5.95 161.16 6.24 159.8 6.4C159.75 6.13 159.6 5.72 159.47 5.46C160.78 5.28 162.24 4.96 163.15 4.59ZM162.32 8.66C162.63 8.95 163.72 10.2 163.96 10.5L163.27 11.49C162.94 10.88 162.14 9.74 161.75 9.23L162.32 8.66Z" fill="#B95906"/>
<path d="M107 13.67L106.16 13.92L104.18 9.2L106.16 4.49L107 4.74L105.1 9.2L107 13.67ZM108.72 13.67L107.89 13.92L105.9 9.2L107.89 4.49L108.72 4.74L106.83 9.2L108.72 13.67ZM111.1 5.18H117.24V6.32H111.1V5.18ZM111.1 7.48H117.26V8.6H111.1V7.48ZM111.08 9.84H117.3V10.97H111.08V9.84ZM110.41 5.18H111.6V8.78C111.6 10.37 111.4 12.62 110.17 13.96C109.98 13.73 109.49 13.33 109.23 13.18C110.32 11.97 110.41 10.18 110.41 8.77V5.18ZM116.82 5.18H118.01V12.49C118.01 13.13 117.87 13.45 117.47 13.64C117.05 13.83 116.45 13.85 115.54 13.84C115.49 13.52 115.31 13 115.15 12.69C115.72 12.73 116.38 12.72 116.56 12.72C116.75 12.71 116.82 12.65 116.82 12.48V5.18ZM113.49 5.63H114.71V13.78H113.49V5.63ZM120.44 6.01H121.7V8.29C121.7 9.95 121.49 12.43 120.31 13.98C120.09 13.76 119.55 13.38 119.25 13.25C120.34 11.82 120.44 9.75 120.44 8.29V6.01ZM123.19 4.75L124.38 4.45C124.6 4.89 124.84 5.46 124.96 5.84L123.72 6.2C123.62 5.81 123.38 5.2 123.19 4.75ZM121.23 6.01H127.66V10.35H126.43V7.13H121.23V6.01ZM121.25 8.71H127.05V9.82H121.25V8.71ZM129.38 6.87H132.46V7.98H129.38V6.87ZM130.35 4.51H131.5V13.9H130.35V4.51ZM132.72 6.36H136.79V7.53H132.72V6.36ZM136.31 6.36H137.45C137.45 6.36 137.44 6.76 137.44 6.9C137.36 11.22 137.28 12.74 136.94 13.22C136.7 13.57 136.46 13.68 136.1 13.74C135.77 13.8 135.26 13.8 134.74 13.78C134.72 13.45 134.59 12.95 134.38 12.63C134.88 12.67 135.32 12.67 135.54 12.67C135.71 12.67 135.81 12.64 135.91 12.5C136.16 12.19 136.23 10.67 136.31 6.62V6.36ZM132.61 8.24L133.66 8.45C133.46 9.49 133.07 10.52 132.62 11.19C132.42 11.02 131.97 10.74 131.72 10.6C132.15 10.02 132.45 9.13 132.61 8.24ZM137.18 8.45L138.15 8.24C138.43 9.19 138.75 10.43 138.87 11.17L137.82 11.44C137.73 10.69 137.45 9.42 137.18 8.45ZM134.24 4.56H135.37V6.7C135.37 8.91 135.15 11.84 132.69 13.91C132.49 13.65 132.06 13.26 131.78 13.08C134.04 11.25 134.24 8.64 134.24 6.7V4.56ZM143.68 5.27C144.29 8.96 145.68 11.75 148.86 12.9C148.58 13.14 148.2 13.63 148.02 13.95C144.65 12.57 143.3 9.63 142.56 5.46L143.68 5.27ZM144.26 4.98L145.28 4.57C145.66 5.27 146.05 6.18 146.17 6.78L145.07 7.24C144.97 6.65 144.62 5.7 144.26 4.98ZM147.03 5.2L148.26 5.38C147.62 9.11 146.44 12.35 142.82 14.02C142.66 13.73 142.34 13.27 142.12 13.02C145.47 11.59 146.54 8.58 147.03 5.2ZM139.89 5.3L140.76 4.68C141.19 5.18 141.73 5.86 141.97 6.31L141.04 7.02C140.82 6.55 140.31 5.83 139.89 5.3ZM140.71 13.72L140.46 12.63L140.72 12.25L142.78 10.79C142.86 11.12 143.03 11.59 143.15 11.82C141.23 13.22 140.9 13.49 140.71 13.72ZM139.38 7.58H141.58V8.73H139.38V7.58ZM140.71 13.72C140.59 13.48 140.25 13.07 140.06 12.9C140.28 12.7 140.58 12.29 140.58 11.72V7.58H141.74V12.34C141.74 12.34 140.71 13.28 140.71 13.72ZM150.99 13.67L152.89 9.2L150.99 4.74L151.83 4.49L153.81 9.2L151.83 13.92L150.99 13.67ZM149.27 13.67L151.16 9.2L149.27 4.74L150.1 4.49L152.08 9.2L150.1 13.92L149.27 13.67ZM177 13.67L176.16 13.92L174.18 9.2L176.16 4.49L177 4.74L175.1 9.2L177 13.67ZM178.72 13.67L177.89 13.92L175.9 9.2L177.89 4.49L178.72 4.74L176.83 9.2L178.72 13.67ZM183.04 6.97H188.13V10.65H183.02V9.76H187.01V7.86H183.04V6.97ZM183.76 11.31H184.81V12.51C184.81 12.75 184.87 12.78 185.2 12.78C185.34 12.78 185.98 12.78 186.17 12.78C186.43 12.78 186.48 12.71 186.52 12.14C186.72 12.31 187.16 12.46 187.46 12.52C187.34 13.52 187.04 13.76 186.28 13.76C186.06 13.76 185.28 13.76 185.07 13.76C183.99 13.76 183.76 13.45 183.76 12.52V11.31ZM182.76 11.22L183.67 11.6C183.51 12.23 183.24 13.04 182.92 13.59L182.02 13.03C182.32 12.56 182.61 11.83 182.76 11.22ZM184.53 11.05L185.26 10.44C185.73 10.81 186.38 11.35 186.71 11.7L185.96 12.38C185.66 12.02 185.01 11.45 184.53 11.05ZM186.86 11.48L187.78 11.15C188.15 11.76 188.53 12.56 188.71 13.1L187.74 13.49C187.58 12.94 187.2 12.11 186.86 11.48ZM183.27 8.37H187.6V9.22H183.27V8.37ZM179.71 4.94H182.07V6.01H180.76V13.91H179.71V4.94ZM181.76 4.94H181.95L182.12 4.9L182.9 5.34C182.65 6.2 182.31 7.29 182.03 8.07C182.64 8.85 182.77 9.52 182.77 10.1C182.77 10.75 182.63 11.17 182.32 11.39C182.16 11.5 181.97 11.57 181.75 11.6C181.56 11.62 181.33 11.63 181.09 11.63C181.08 11.34 181 10.89 180.83 10.6C181.01 10.61 181.15 10.62 181.27 10.61C181.38 10.61 181.47 10.59 181.55 10.53C181.67 10.44 181.71 10.24 181.71 9.96C181.71 9.49 181.58 8.87 181.02 8.2C181.29 7.3 181.61 5.92 181.76 5.28V4.94ZM184.75 5.3H186.76V6.17H184.07L184.75 5.3ZM184.23 4.58L185.32 4.78C184.82 5.67 184.18 6.55 183.3 7.32C183.13 7.09 182.77 6.74 182.53 6.59C183.31 6 183.89 5.22 184.23 4.58ZM186.47 5.3H186.71L186.87 5.26L187.57 5.72C187.22 6.33 186.61 7.07 186.14 7.53C185.94 7.38 185.61 7.16 185.38 7.04C185.79 6.62 186.27 5.93 186.47 5.49V5.3ZM191.17 5.49H192.35V13.88H191.17V5.49ZM189.43 7.42H193.86V8.56H189.43V7.42ZM191.18 7.91L191.91 8.26C191.45 9.68 190.63 11.49 189.78 12.49C189.67 12.15 189.39 11.64 189.19 11.33C189.98 10.51 190.8 9.01 191.18 7.91ZM193.05 4.55L193.89 5.45C192.71 5.92 191.11 6.25 189.71 6.43C189.66 6.17 189.5 5.76 189.37 5.51C190.69 5.3 192.16 4.95 193.05 4.55ZM192.29 8.76C192.61 9.01 193.67 10.1 193.91 10.36L193.2 11.26C192.86 10.73 192.07 9.75 191.67 9.3L192.29 8.76ZM195.09 4.73L196.46 4.95C196.09 7.64 195.43 10.79 194.83 12.85L193.67 12.61C194.25 10.52 194.85 7.28 195.09 4.73ZM192.85 12.29C194.07 12.19 196.03 11.99 197.88 11.78L197.91 12.88C196.23 13.14 194.45 13.39 193.13 13.56L192.85 12.29ZM196.27 9.72L197.42 9.39C198.02 10.71 198.6 12.4 198.76 13.51L197.49 13.9C197.36 12.82 196.84 11.08 196.27 9.72ZM199.43 5.1H204.03V6.25H199.43V5.1ZM201.97 8H203.76V9.14H201.97V8ZM201.45 5.72H202.61V12H201.45V5.72ZM199.73 7.45H200.81V12.19H199.73V7.45ZM199.2 11.83C200.41 11.64 202.29 11.26 204.02 10.9L204.13 11.99C202.48 12.37 200.7 12.76 199.41 13.04L199.2 11.83ZM204.75 6.34H208.69V7.45H204.75V6.34ZM205 4.5L206.19 4.69C205.85 6.63 205.23 8.44 204.32 9.59C204.13 9.36 203.66 8.94 203.39 8.75C204.23 7.78 204.74 6.19 205 4.5ZM206.9 7.01L208.1 7.12C207.66 10.53 206.63 12.67 204.12 13.93C204.01 13.65 203.66 13.12 203.44 12.87C205.71 11.86 206.59 9.98 206.9 7.01ZM205.35 7.21C205.79 9.79 206.76 11.94 208.77 12.86C208.5 13.1 208.14 13.57 207.96 13.89C205.78 12.73 204.83 10.43 204.28 7.39L205.35 7.21ZM209.62 7.34H218.37V8.37H209.62V7.34ZM213.46 6.8H214.75V13.9H213.46V6.8ZM210.27 8.86H217.26V9.87H211.54V11.64H210.27V8.86ZM216.63 8.86H217.87V10.57C217.87 11.07 217.77 11.31 217.41 11.46C217.05 11.61 216.59 11.61 216.01 11.61C215.94 11.31 215.75 10.94 215.62 10.69C215.95 10.71 216.36 10.71 216.47 10.7C216.59 10.7 216.63 10.67 216.63 10.57V8.86ZM213.59 10.43L214.49 10.77C213.53 12.15 211.92 13.15 210.12 13.63C209.96 13.33 209.63 12.87 209.37 12.62C211.13 12.28 212.76 11.47 213.59 10.43ZM214.45 10.44C215.18 11.29 216.85 12.17 218.76 12.51C218.52 12.77 218.17 13.25 218 13.56C216.14 13.1 214.56 11.97 213.81 11L214.45 10.44ZM210.73 5.29H213.86V6.29H210.73V5.29ZM214.75 5.29H218.54V6.29H214.75V5.29ZM210.78 4.44L211.93 4.75C211.52 5.71 210.87 6.68 210.24 7.29C210.01 7.1 209.52 6.78 209.24 6.63C209.88 6.1 210.46 5.26 210.78 4.44ZM214.81 4.44L215.99 4.73C215.62 5.73 214.99 6.7 214.35 7.31C214.13 7.11 213.63 6.78 213.34 6.62C213.98 6.11 214.53 5.28 214.81 4.44ZM211.13 6.08L212.12 5.73C212.38 6.12 212.69 6.65 212.81 7L211.78 7.39C211.67 7.05 211.39 6.49 211.13 6.08ZM215.49 6L216.5 5.69C216.79 6.08 217.13 6.62 217.27 6.98L216.2 7.33C216.08 6.97 215.77 6.41 215.49 6ZM220.99 13.67L222.89 9.2L220.99 4.74L221.83 4.49L223.81 9.2L221.83 13.92L220.99 13.67ZM219.27 13.67L221.16 9.2L219.27 4.74L220.1 4.49L222.08 9.2L220.1 13.92L219.27 13.67Z" fill="#FFF2E7"/>
</svg>
