<svg width="29" height="11" viewBox="0 0 29 11" fill="none" xmlns="http://www.w3.org/2000/svg">
<path d="M6.752 6.816C5.824 7.616 4.808 8.352 3.704 9.024C2.616 9.696 1.856 10.032 1.424 10.032C1.008 10.032 0.68 9.936 0.44 9.744C0.2 9.552 0.08 9.296 0.08 8.976C0.08 8.432 0.496 8.04 1.328 7.8C3.712 7.112 5.496 6.208 6.68 5.088C5.496 3.968 3.712 3.064 1.328 2.376C0.496 2.136 0.08 1.744 0.08 1.2C0.08 0.879999 0.2 0.623999 0.44 0.431999C0.68 0.24 1.008 0.144 1.424 0.144C1.856 0.144 2.616 0.48 3.704 1.152C4.808 1.824 5.824 2.56 6.752 3.36C7.68 4.16 8.168 4.736 8.216 5.088C8.168 5.44 7.68 6.016 6.752 6.816ZM17.0411 6.816C16.1131 7.616 15.0971 8.352 13.9931 9.024C12.9051 9.696 12.1451 10.032 11.7131 10.032C11.2971 10.032 10.9691 9.936 10.7291 9.744C10.4891 9.552 10.3691 9.296 10.3691 8.976C10.3691 8.432 10.7851 8.04 11.6171 7.8C14.0011 7.112 15.7851 6.208 16.9691 5.088C15.7851 3.968 14.0011 3.064 11.6171 2.376C10.7851 2.136 10.3691 1.744 10.3691 1.2C10.3691 0.879999 10.4891 0.623999 10.7291 0.431999C10.9691 0.24 11.2971 0.144 11.7131 0.144C12.1451 0.144 12.9051 0.48 13.9931 1.152C15.0971 1.824 16.1131 2.56 17.0411 3.36C17.9691 4.16 18.4571 4.736 18.5051 5.088C18.4571 5.44 17.9691 6.016 17.0411 6.816ZM27.3301 6.816C26.4021 7.616 25.3861 8.352 24.2821 9.024C23.1941 9.696 22.4341 10.032 22.0021 10.032C21.5861 10.032 21.2581 9.936 21.0181 9.744C20.7781 9.552 20.6581 9.296 20.6581 8.976C20.6581 8.432 21.0741 8.04 21.9061 7.8C24.2901 7.112 26.0741 6.208 27.2581 5.088C26.0741 3.968 24.2901 3.064 21.9061 2.376C21.0741 2.136 20.6581 1.744 20.6581 1.2C20.6581 0.879999 20.7781 0.623999 21.0181 0.431999C21.2581 0.24 21.5861 0.144 22.0021 0.144C22.4341 0.144 23.1941 0.48 24.2821 1.152C25.3861 1.824 26.4021 2.56 27.3301 3.36C28.2581 4.16 28.7461 4.736 28.7941 5.088C28.7461 5.44 28.2581 6.016 27.3301 6.816Z" fill="#DEA153"/>
</svg>
