<svg width="16" height="26" viewBox="0 0 16 26" fill="none" xmlns="http://www.w3.org/2000/svg">
<mask id="path-1-outside-1_280_2411" maskUnits="userSpaceOnUse" x="-2" y="-1" width="19" height="28" fill="black">
<rect fill="white" x="-2" y="-1" width="19" height="28"/>
<path d="M6.208 17.288C5.248 11.944 12.768 10.536 12.768 6.888C12.768 4.68 11.2 3.08 7.936 3.08C5.728 3.08 3.712 4.04 1.856 5.96L0.160001 4.392C2.272 2.152 4.768 0.647999 8.224 0.647999C12.736 0.647999 15.648 2.984 15.648 6.664C15.648 11.496 8 12.488 8.832 17.288H6.208ZM7.584 25.16C6.432 25.16 5.536 24.36 5.536 23.08C5.536 21.8 6.464 20.936 7.584 20.936C8.704 20.936 9.632 21.8 9.632 23.08C9.632 24.36 8.704 25.16 7.584 25.16Z"/>
</mask>
<path d="M6.208 17.288C5.248 11.944 12.768 10.536 12.768 6.888C12.768 4.68 11.2 3.08 7.936 3.08C5.728 3.08 3.712 4.04 1.856 5.96L0.160001 4.392C2.272 2.152 4.768 0.647999 8.224 0.647999C12.736 0.647999 15.648 2.984 15.648 6.664C15.648 11.496 8 12.488 8.832 17.288H6.208ZM7.584 25.16C6.432 25.16 5.536 24.36 5.536 23.08C5.536 21.8 6.464 20.936 7.584 20.936C8.704 20.936 9.632 21.8 9.632 23.08C9.632 24.36 8.704 25.16 7.584 25.16Z" fill="#B95600"/>
<path d="M6.208 17.288L5.22376 17.4648L5.37163 18.288H6.208V17.288ZM1.856 5.96L1.17715 6.69427L1.89526 7.35819L2.57499 6.65502L1.856 5.96ZM0.160001 4.392L-0.567589 3.70599L-1.26035 4.44073L-0.518855 5.12627L0.160001 4.392ZM8.832 17.288V18.288H10.0202L9.81731 17.1172L8.832 17.288ZM7.19225 17.1112C6.81992 15.0386 8.01433 13.6911 9.77058 12.2182C10.5896 11.5313 11.5914 10.7722 12.334 9.98816C13.0964 9.18322 13.768 8.17459 13.768 6.888H11.768C11.768 7.42541 11.4996 7.96078 10.882 8.61284C10.2446 9.28578 9.42637 9.89667 8.48542 10.6858C6.72167 12.1649 4.63608 14.1934 5.22376 17.4648L7.19225 17.1112ZM13.768 6.888C13.768 5.53284 13.2773 4.28442 12.2214 3.39218C11.1856 2.51688 9.71996 2.08 7.936 2.08V4.08C9.41604 4.08 10.3664 4.44311 10.9306 4.91982C11.4747 5.37958 11.768 6.03515 11.768 6.888H13.768ZM7.936 2.08C5.39948 2.08 3.13739 3.19562 1.13701 5.26498L2.57499 6.65502C4.28661 4.88438 6.05652 4.08 7.936 4.08V2.08ZM2.53486 5.22573L0.838857 3.65773L-0.518855 5.12627L1.17715 6.69427L2.53486 5.22573ZM0.88759 5.07801C2.86758 2.97802 5.11667 1.648 8.224 1.648V-0.352001C4.41933 -0.352001 1.67642 1.32598 -0.567589 3.70599L0.88759 5.07801ZM8.224 1.648C10.3174 1.648 11.9309 2.19029 12.9995 3.0538C14.0461 3.89951 14.648 5.11238 14.648 6.664H16.648C16.648 4.53562 15.7939 2.74049 14.2565 1.49819C12.7411 0.273709 10.6426 -0.352001 8.224 -0.352001V1.648ZM14.648 6.664C14.648 7.57567 14.2975 8.32532 13.6968 9.04852C13.0715 9.80126 12.2339 10.4598 11.3018 11.2083C10.414 11.9214 9.42432 12.7283 8.73113 13.7029C8.00439 14.7245 7.58552 15.952 7.84669 17.4588L9.81731 17.1172C9.66248 16.224 9.88761 15.5275 10.3609 14.8621C10.8677 14.1497 11.6341 13.5066 12.5542 12.7677C13.4301 12.0642 14.4525 11.2687 15.2352 10.3265C16.0425 9.35467 16.648 8.16833 16.648 6.664H14.648ZM8.832 16.288H6.208V18.288H8.832V16.288ZM7.584 24.16C7.24191 24.16 6.98965 24.044 6.82729 23.8852C6.66951 23.7308 6.536 23.4771 6.536 23.08H4.536C4.536 23.9629 4.85049 24.7492 5.42871 25.3148C6.00235 25.876 6.77409 26.16 7.584 26.16V24.16ZM6.536 23.08C6.536 22.3422 7.02634 21.936 7.584 21.936V19.936C5.90166 19.936 4.536 21.2578 4.536 23.08H6.536ZM7.584 21.936C8.14166 21.936 8.632 22.3422 8.632 23.08H10.632C10.632 21.2578 9.26634 19.936 7.584 19.936V21.936ZM8.632 23.08C8.632 23.7771 8.18288 24.16 7.584 24.16V26.16C9.22512 26.16 10.632 24.9429 10.632 23.08H8.632Z" fill="#B95600" mask="url(#path-1-outside-1_280_2411)"/>
</svg>
